<?xml version="1.0" standalone="no"?>
<!DOCTYPE svg PUBLIC "-//W3C//DTD SVG 20010904//EN"
 "http://www.w3.org/TR/2001/REC-SVG-20010904/DTD/svg10.dtd">
<svg version="1.0" xmlns="http://www.w3.org/2000/svg"
 width="648.000000pt" height="582.000000pt" viewBox="0 0 648.000000 582.000000"
 preserveAspectRatio="xMidYMid meet">

<g transform="translate(0.000000,582.000000) scale(0.100000,-0.100000)"
fill="#000000" stroke="none">
<path d="M3786 5801 c-4 -6 -39 -11 -81 -11 -41 0 -77 -4 -80 -10 -3 -5 -20
-10 -37 -10 -34 0 -254 -72 -298 -98 -132 -77 -295 -208 -329 -263 -9 -15 -36
-48 -59 -73 l-43 -47 -62 35 c-111 62 -241 124 -287 137 -25 7 -49 16 -55 19
-10 7 -28 12 -120 32 -63 14 -343 14 -410 1 -113 -23 -255 -77 -325 -123 -129
-86 -156 -103 -166 -104 -30 -5 -280 -241 -305 -288 -10 -21 -28 -42 -39 -48
-11 -6 -20 -15 -20 -21 0 -11 -48 -89 -64 -104 -16 -15 -116 -219 -116 -236 0
-8 -6 -23 -14 -34 -53 -76 -76 -372 -47 -600 13 -105 9 -129 -23 -147 -60 -33
-108 -74 -201 -168 -55 -56 -111 -111 -124 -121 -24 -19 -44 -46 -139 -184
-96 -139 -110 -160 -116 -182 -4 -13 -11 -23 -16 -23 -8 0 -110 -199 -110
-216 0 -6 -8 -28 -18 -50 -17 -36 -25 -65 -62 -234 -12 -56 -9 -317 4 -395 25
-145 105 -335 199 -475 60 -89 215 -246 310 -314 141 -100 324 -174 522 -211
50 -10 97 -21 106 -25 9 -5 23 -41 33 -87 108 -463 350 -794 714 -977 179 -90
373 -135 577 -136 232 0 386 47 680 208 55 31 154 85 220 121 210 116 252 131
353 131 48 0 125 -7 172 -16 441 -80 587 -93 765 -71 172 21 281 54 450 136
278 134 383 223 593 495 141 184 211 402 212 660 0 124 -28 286 -65 371 -7 17
-20 50 -30 74 l-16 45 135 130 c372 360 516 657 516 1060 -1 287 -77 535 -235
763 -49 70 -246 275 -283 294 -15 8 -33 21 -39 31 -16 20 -244 133 -333 164
-36 13 -76 23 -91 24 -14 0 -29 4 -35 9 -14 14 -94 22 -256 27 -127 4 -148 7
-152 22 -3 9 -13 53 -21 97 -52 257 -176 484 -367 671 -111 109 -177 158 -303
224 -94 49 -150 70 -187 70 -15 0 -30 5 -33 10 -3 6 -21 10 -39 10 -17 0 -36
4 -41 9 -6 5 -41 12 -80 15 -38 4 -95 9 -126 12 -36 4 -59 2 -63 -5z m156
-562 c158 -24 290 -117 399 -279 51 -76 109 -204 109 -240 0 -14 4 -30 9 -35
21 -22 40 -390 22 -408 -6 -6 -11 -26 -11 -44 0 -44 -35 -152 -76 -234 -31
-61 -134 -177 -167 -188 -7 -2 -20 -11 -30 -19 -36 -32 -148 -61 -234 -62 -45
0 -85 5 -88 10 -3 6 -19 10 -34 10 -30 0 -123 43 -141 65 -7 8 -18 15 -24 15
-7 0 -46 35 -87 78 -113 116 -175 228 -220 397 -21 79 -24 111 -24 270 1 198
8 237 70 370 45 98 85 148 163 205 71 52 131 78 216 90 74 11 71 11 148 -1z
m-1677 -283 c142 -31 240 -90 366 -217 128 -128 231 -292 284 -449 11 -30 23
-59 27 -64 4 -6 8 -29 8 -52 0 -24 5 -46 10 -49 6 -4 10 -60 10 -135 0 -75 -4
-131 -10 -135 -5 -3 -10 -19 -10 -34 0 -47 -65 -162 -126 -225 -52 -53 -93
-78 -184 -113 -41 -15 -196 -18 -205 -3 -3 6 -19 10 -35 10 -16 0 -49 9 -72
19 -24 10 -67 29 -95 42 -29 12 -60 31 -70 41 -9 10 -21 18 -27 18 -21 0 -231
217 -278 286 -155 232 -219 486 -173 683 66 277 311 437 580 377z m3171 -860
c75 -20 146 -62 220 -130 93 -84 191 -235 223 -341 7 -22 16 -49 21 -60 11
-25 21 -119 22 -205 0 -76 -17 -179 -39 -240 -3 -8 -8 -24 -10 -35 -10 -53
-137 -215 -169 -215 -7 0 -17 -6 -21 -14 -11 -18 -88 -57 -138 -69 -63 -15
-196 -20 -208 -8 -6 6 -23 11 -37 11 -14 0 -64 19 -110 41 -136 67 -248 187
-325 352 -50 105 -67 177 -72 310 -8 176 17 284 93 399 78 117 196 195 334
222 38 7 159 -3 216 -18z m-3975 -735 c257 -73 546 -355 618 -601 7 -25 17
-58 22 -74 12 -40 11 -203 -1 -211 -5 -3 -10 -14 -10 -25 0 -35 -61 -133 -113
-182 -50 -46 -111 -81 -188 -106 -43 -15 -225 -16 -234 -2 -3 6 -21 10 -40 10
-19 0 -36 4 -40 9 -3 5 -29 17 -58 27 -28 9 -70 29 -92 44 -22 14 -67 44 -100
66 -147 96 -282 261 -340 419 -14 39 -35 160 -35 205 0 155 91 310 224 385
119 66 241 78 387 36z m2195 -165 c176 -31 342 -124 476 -266 97 -103 152
-167 157 -183 6 -17 47 -73 96 -128 22 -26 56 -66 76 -90 72 -87 253 -202 434
-276 253 -103 352 -180 419 -324 21 -46 43 -92 47 -101 12 -23 12 -213 0 -236
-5 -9 -15 -37 -22 -62 -17 -59 -56 -116 -124 -181 -55 -52 -133 -99 -167 -99
-9 0 -20 -5 -23 -10 -8 -13 -282 -13 -290 0 -3 6 -25 10 -49 10 -23 0 -46 4
-51 9 -6 5 -30 12 -55 15 -81 9 -120 18 -126 27 -3 5 -20 9 -39 9 -19 0 -37 5
-40 10 -3 6 -30 10 -59 10 -28 0 -57 5 -63 11 -12 12 -141 7 -228 -9 -73 -13
-211 -60 -276 -93 -31 -16 -63 -29 -70 -29 -11 0 -180 -78 -249 -116 -113 -61
-235 -121 -286 -140 -33 -12 -76 -31 -95 -42 -47 -28 -85 -35 -217 -39 -95 -4
-121 -1 -167 16 -61 23 -123 59 -144 85 -7 9 -20 16 -27 16 -7 0 -21 12 -31
27 -9 16 -27 39 -39 53 -32 36 -83 141 -100 202 -38 145 9 316 124 451 20 24
59 69 86 101 163 191 220 327 272 649 43 272 124 442 269 566 163 138 369 194
581 157z"/>
</g>
</svg>
